<?xml version="1.0" encoding="UTF-8"?>
<svg version="1.1" xmlns="http://www.w3.org/2000/svg" width="711" height="554">
<path d="M0 0 C1.06347656 -0.03158203 2.12695312 -0.06316406 3.22265625 -0.09570312 C10.4923313 -0.06448366 14.69982145 1.55575522 20.36132812 6.11450195 C22.34467807 7.68918219 24.20068728 8.77474266 26.5 9.8125 C27.180625 9.07 27.86125 8.3275 28.5625 7.5625 C35.4879929 0.80062023 41.46054613 0.13199025 50.875 0.1875 C51.96039063 0.15527344 53.04578125 0.12304688 54.1640625 0.08984375 C62.93825112 0.0792469 68.04113767 2.59055351 74.3425293 8.55712891 C77.40743497 11.69283454 78.75964904 14.31668928 79.8125 18.5625 C80.39794913 20.87563918 80.39794913 20.87563918 81.5 22.8125 C83.6187948 23.96244419 85.62198725 24.45203272 87.9609375 25.0234375 C97.59446162 28.01724038 104.69336155 36.11219843 109.25 44.75 C113.06742097 52.92666943 114.46624076 59.82752639 112.5 68.8125 C110.65167684 73.47854658 108.27883378 77.64424933 105.5 81.8125 C105.11500109 83.46799531 104.77206865 85.1347433 104.5 86.8125 C110.86427942 85.17597101 113.07518219 80.12168748 116.3125 74.875 C116.704375 74.194375 117.09625 73.51375 117.5 72.8125 C125.40921487 74.2298593 131.00578674 82.17255813 135.671875 88.1796875 C145.21161028 101.91853703 145.00805143 117.67233414 143.5 133.8125 C142.24084611 139.20509129 139.78959644 143.37288203 136.5 147.8125 C135.51773438 149.40578125 135.51773438 149.40578125 134.515625 151.03125 C132.58152069 153.70001409 131.54256307 154.72587033 128.5 155.8125 C127.61248047 154.74708984 127.61248047 154.74708984 126.70703125 153.66015625 C125.91683594 152.74105469 125.12664062 151.82195312 124.3125 150.875 C123.14654297 149.50021484 123.14654297 149.50021484 121.95703125 148.09765625 C119.34764038 145.67079828 117.99260024 145.10406698 114.5 144.8125 C114.65208028 149.83114909 117.35885705 151.82084886 120.78125 155.046875 C125.05251407 159.43462809 126.29665508 164.49436796 126.8125 170.375 C126.66634922 179.09532991 122.58026372 187.66467779 116.5 193.8125 C110.31924163 198.83873935 102.61561382 203.8125 94.5 203.8125 C94.47421875 204.4415625 94.4484375 205.070625 94.421875 205.71875 C93.74061396 215.99959841 89.92667942 221.68398196 83.3046875 229.41796875 C75.18897665 236.34684166 67.52965277 237.63441905 57.0625 237.5 C55.91201172 237.52771484 54.76152344 237.55542969 53.57617188 237.58398438 C43.18244166 237.55454038 35.72404769 234.19019464 28.3125 226.9375 C27.3612978 225.9083304 26.41795148 224.87143379 25.5 223.8125 C25.05269531 224.19921875 24.60539062 224.5859375 24.14453125 224.984375 C22.8872271 226.06742591 21.62662778 227.14665971 20.36328125 228.22265625 C18.8998668 229.47131386 17.44775252 230.73321655 16 232 C8.82287842 237.20341314 2.34052823 237.33213251 -6.3125 237.3125 C-7.43720703 237.34085938 -8.56191406 237.36921875 -9.72070312 237.3984375 C-19.08832752 237.42021001 -25.14643103 234.82650929 -32.75 229.5625 C-38.9395246 223.3729754 -43.56234102 216.38206989 -43.625 207.4375 C-43.58375 206.24125 -43.5425 205.045 -43.5 203.8125 C-44.10585938 203.73773438 -44.71171875 203.66296875 -45.3359375 203.5859375 C-55.46439771 201.99654836 -64.1823799 196.97836002 -70.5 188.8125 C-75.34969549 181.15352968 -75.98441886 172.41640001 -75.0625 163.5625 C-75.64177034 158.59732565 -77.68096243 157.25683241 -81.26953125 153.9921875 C-90.89882849 144.5821212 -94.83440413 131.98565124 -95 118.8125 C-94.80414212 103.2320055 -88.94216892 90.99249703 -78.0625 79.9375 C-67.5319206 69.8125 -67.5319206 69.8125 -61.5 69.8125 C-61.83 69.1525 -62.16 68.4925 -62.5 67.8125 C-63.52824818 55.27124354 -61.36793896 46.53437396 -53.35546875 36.84765625 C-47.97595907 30.94718353 -41.78006133 25.59717791 -33.75 24.125 C-30.43607583 23.20525203 -30.43607583 23.20525203 -29.5703125 20.9375 C-29.09620585 19.36069587 -28.64527434 17.7767822 -28.21484375 16.1875 C-26.13688009 9.28366445 -21.46722497 5.6170207 -15.40454102 2.08911133 C-10.33408615 -0.13946802 -5.46486747 -0.09604919 0 0 Z M-16.5 15.8125 C-19.15279745 19.58587568 -20.36204042 23.20153614 -21.375 27.6875 C-22.5 30.8125 -22.5 30.8125 -25 32 C-26.155 32.268125 -27.31 32.53625 -28.5 32.8125 C-38.05693549 35.78180254 -45.46643336 40.69640173 -50.5625 49.5 C-53.57036952 56.32272842 -53.94630752 63.62162467 -51.5078125 70.6875 C-49.72229409 74.4137993 -47.79404107 77.46429347 -45.125 80.625 C-43.5 82.8125 -43.5 82.8125 -43.75 85.625 C-43.9975 86.346875 -44.245 87.06875 -44.5 87.8125 C-47.1875 88.1875 -47.1875 88.1875 -50.5 87.8125 C-53.25967237 84.9901078 -55.31525767 82.0896135 -57.5 78.8125 C-66.21696648 81.53655202 -73.43403078 88.47040958 -77.91015625 96.26953125 C-83.49360529 107.12714207 -85.39631468 117.97739751 -82.8125 130.015625 C-80.25215853 137.48328762 -76.35120502 145.39536064 -70.5 150.8125 C-67.4377169 149.42117316 -65.12125081 147.73110465 -62.5625 145.5625 C-60.47265625 143.9453125 -60.47265625 143.9453125 -58.5 142.8125 C-55.5 143.4375 -55.5 143.4375 -53.5 144.8125 C-53.0625 146.875 -53.0625 146.875 -53.5 149.8125 C-54.91796875 151.421875 -54.91796875 151.421875 -56.75 153.125 C-62.13969835 158.20858973 -64.67935559 162.82390145 -65 170.3125 C-64.69923727 177.32706312 -62.46559367 182.23666534 -57.375 187.0625 C-53.10749867 190.45058132 -47.06473284 193.8125 -41.5 193.8125 C-39.85 190.8425 -38.2 187.8725 -36.5 184.8125 C-34.50045254 184.76995644 -32.49958364 184.77169217 -30.5 184.8125 C-29.5 185.8125 -29.5 185.8125 -29.25 188.4375 C-29.5 191.8125 -29.5 191.8125 -31 194.9375 C-33.61738827 200.58554837 -33.45655236 207.2088845 -31.87890625 213.15234375 C-28.99143759 219.83843784 -23.2454535 223.77807812 -16.75 226.6875 C-8.75980406 229.3038975 -0.3454992 228.60509931 7.2421875 225.140625 C13.37348876 221.5339772 17.51129435 216.71666966 19.5 209.8125 C19.82717017 206.81711298 19.78803388 203.88328317 19.6875 200.875 C19.67396484 200.09576172 19.66042969 199.31652344 19.64648438 198.51367188 C19.61150224 196.61297596 19.55770959 194.71264166 19.5 192.8125 C18.93796875 192.97621094 18.3759375 193.13992188 17.796875 193.30859375 C15.36940944 193.84114997 13.23110319 193.91148681 10.75 193.875 C9.95078125 193.86597656 9.1515625 193.85695313 8.328125 193.84765625 C7.42320312 193.83025391 7.42320312 193.83025391 6.5 193.8125 C5.4375 192 5.4375 192 4.5 189.8125 C4.83 188.8225 5.16 187.8325 5.5 186.8125 C7.94916285 185.88904516 10.41052668 185.35197749 12.95703125 184.75390625 C16.15714267 183.56922598 17.42688875 182.54381932 19.5 179.8125 C19.8491005 176.9228488 19.9681562 174.4265729 19.890625 171.546875 C19.88213531 170.35677826 19.88213531 170.35677826 19.87347412 169.14263916 C19.85113147 166.61530527 19.80094176 164.08940335 19.75 161.5625 C19.72993214 159.84637468 19.71168187 158.13022708 19.6953125 156.4140625 C19.65127395 152.2129922 19.58226326 148.01298865 19.5 143.8125 C16.76808019 144.40587178 14.0399553 145.01171283 11.3125 145.625 C10.54357422 145.79064453 9.77464844 145.95628906 8.98242188 146.12695312 C2.77759228 147.53835213 -2.52226569 149.60029643 -6.5 154.8125 C-7.19300416 157.1596391 -7.68340396 159.47661049 -8.10546875 161.88671875 C-8.5 163.8125 -8.5 163.8125 -9.5 164.8125 C-11.9375 165.0625 -11.9375 165.0625 -14.5 164.8125 C-16.98229736 161.08905396 -16.69289222 159.50813299 -16.11328125 155.234375 C-14.76849004 149.92373457 -12.02933525 145.83205683 -7.5 142.8125 C-8.63225208 140.26493283 -9.77311263 138.49922374 -11.625 136.375 C-13.71819966 133.5142938 -13.89451163 132.26447673 -13.5 128.8125 C-10.0798009 128.39370011 -7.5182399 128.12192182 -4.58203125 130.11328125 C-3.38741619 131.18053863 -2.21748817 132.2762909 -1.078125 133.40234375 C2.22582716 136.35463764 6.09172798 136.08279741 10.27734375 136.03515625 C13.31891514 135.73046456 15.14975207 134.73543013 17.5 132.8125 C19.8639196 129.26662059 19.74355585 127.79746318 19.72705078 123.59692383 C19.72689972 122.3158223 19.72674866 121.03472076 19.72659302 119.71479797 C19.71637973 118.31637416 19.70594774 116.91795192 19.6953125 115.51953125 C19.69158178 114.08892515 19.68873509 112.65831648 19.68673706 111.22770691 C19.67910522 107.46457856 19.65946069 103.70160489 19.6373291 99.9385376 C19.61686094 96.09771822 19.60773327 92.25687383 19.59765625 88.41601562 C19.57621429 80.88143994 19.54208387 73.34699166 19.5 65.8125 C18.61521973 65.49071777 17.73043945 65.16893555 16.81884766 64.83740234 C15.65401855 64.40379395 14.48918945 63.97018555 13.2890625 63.5234375 C12.13615723 63.09853027 10.98325195 62.67362305 9.79541016 62.23583984 C3.93684029 59.70543072 -0.73270447 56.02674744 -3.5 50.1875 C-4.40167694 47.14434034 -4.86896928 44.94873887 -4.5 41.8125 C-3.5 40.8125 -3.5 40.8125 0.0625 40.75 C1.196875 40.770625 2.33125 40.79125 3.5 40.8125 C3.71914063 41.33199219 3.93828125 41.85148437 4.1640625 42.38671875 C6.52349351 47.57554873 8.71391315 50.65368268 13.5 53.8125 C15.48941986 54.20406063 17.48993075 54.54654376 19.5 54.8125 C19.59961729 50.40175296 19.67181669 45.99161905 19.71972656 41.58007812 C19.73971919 40.0825661 19.76692299 38.58513092 19.80175781 37.08789062 C20.17783352 25.3528894 20.17783352 25.3528894 15.5 14.8125 C10.84736464 10.26369676 6.52635186 9.41645625 0.0625 9.125 C-6.89438007 9.38137905 -11.66445695 10.68290365 -16.5 15.8125 Z M30.5 43.8125 C30.5 46.7825 30.5 49.7525 30.5 52.8125 C30.83 52.1525 31.16 51.4925 31.5 50.8125 C33.71484375 49.99609375 33.71484375 49.99609375 36.4375 49.25 C40.05797321 48.262987 40.05797321 48.262987 43.5 46.8125 C43.542721 45.14638095 43.54063832 43.47867115 43.5 41.8125 C42.48192704 40.58787895 42.48192704 40.58787895 40.375 40.5625 C36.58789279 40.89181367 33.93440072 42.19631142 30.5 43.8125 Z M61.5 69.8125 C59.57905845 72.69391232 58.47771537 74.90849533 57.6875 78.3125 C56.26301629 82.5109783 54.29365993 84.68066455 50.5 86.8125 C47.87436434 87.75642687 45.23730067 88.29477085 42.5 88.8125 C38.22350267 89.78443121 34.4595191 90.83274045 30.5 92.8125 C30.5 95.7825 30.5 98.7525 30.5 101.8125 C31.30050781 101.25369141 31.30050781 101.25369141 32.1171875 100.68359375 C37.41585653 97.31921393 41.03590426 96.19636319 47.26953125 97.23046875 C52.10916923 98.49335152 54.78827009 100.67354382 57.5 104.8125 C59.975 104.3175 59.975 104.3175 62.5 103.8125 C62.05747529 98.94472824 61.02130856 97.10662737 57.5 93.8125 C57.5 92.8225 57.5 91.8325 57.5 90.8125 C58.263125 90.07 59.02625 89.3275 59.8125 88.5625 C63.88089855 84.39948753 65.41115141 80.6783204 65.6875 74.875 C65.625625 73.864375 65.56375 72.85375 65.5 71.8125 C64.18 71.1525 62.86 70.4925 61.5 69.8125 Z M93.5 112.8125 C91.66135455 115.57046817 91.13518563 117.02536984 90.375 120.125 C88.65866929 125.57635092 85.28314507 127.96901673 80.5 130.8125 C76.93059755 132.59720123 72.57124418 132.18161995 68.6171875 132.33007812 C61.10301693 132.70019991 56.011833 134.42315218 50.5 139.8125 C47.90824472 143.8729166 46.84240901 146.99016605 47.5 151.8125 C48.49 152.4725 49.48 153.1325 50.5 153.8125 C53.59532695 151.02670574 55.18404061 148.76037818 56.5 144.8125 C56.83 143.8225 57.16 142.8325 57.5 141.8125 C62.6738967 139.94989719 67.52053523 139.67811522 73 139.4375 C82.28518784 138.88481025 87.68519195 136.45481159 94.0234375 129.66796875 C97.93618002 124.75116268 98.88546193 120.10837814 98.5 113.8125 C96.85 113.4825 95.2 113.1525 93.5 112.8125 Z M30.5 170.8125 C30.5 172.7925 30.5 174.7725 30.5 176.8125 C32.12249941 177.65069158 33.74808497 178.4829116 35.375 179.3125 C36.27992188 179.7765625 37.18484375 180.240625 38.1171875 180.71875 C40.36596859 181.95155589 40.36596859 181.95155589 42.5 181.8125 C42.5 182.4725 42.5 183.1325 42.5 183.8125 C43.16 183.8125 43.82 183.8125 44.5 183.8125 C44.768125 184.72 45.03625 185.6275 45.3125 186.5625 C46.39576294 189.52721963 47.48359457 191.4294754 49.5 193.8125 C50.82 193.1525 52.14 192.4925 53.5 191.8125 C53.06189345 186.33616806 52.07936199 183.01825033 48.5 178.8125 C42.99777923 174.50328411 37.6494172 170.8125 30.5 170.8125 Z " fill="#3F46DA" transform="translate(334.5,81.1875)"/>
<path d="M0 0 C1.134375 0.020625 2.26875 0.04125 3.4375 0.0625 C5.29814029 3.16590758 5.66145864 4.90772502 4.875 8.4375 C3.24758038 14.64203729 -0.07778739 18.31530074 -5.25 21.875 C-10.58379015 24.72209069 -16.16851592 24.64704105 -22.09057617 24.6105957 C-27.39680522 24.65349397 -30.35912164 25.51920772 -34.5625 29.0625 C-37.18285976 31.90795675 -38.18965527 34.53823693 -39.1875 38.25 C-40.47396881 42.97396881 -40.47396881 42.97396881 -41.5625 44.0625 C-44.5 44.25 -44.5 44.25 -47.5625 44.0625 C-49.9698459 41.6551541 -49.93644558 40.88193298 -50.0625 37.5625 C-49.90765327 31.25932742 -47.57575457 26.8421461 -43.5625 22.0625 C-35.24819448 14.65159047 -26.5581169 13.87050896 -15.83203125 13.50390625 C-12.25784455 13.02136969 -10.36613039 12.3144321 -7.5625 10.0625 C-6.37559942 7.86616802 -6.37559942 7.86616802 -5.8125 5.4375 C-4.32024519 0.07579378 -4.32024519 0.07579378 0 0 Z " fill="#3940C8" transform="translate(334.5625,160.9375)"/>
<path d="M0 0 C5.32201471 4.02107778 8.99016474 8.13312024 10 15 C10.81971485 24.34474931 7.67005403 32.95862081 1.7578125 40.22265625 C-3.58242452 45.62222924 -10.79088655 49.65669353 -18 52 C-19.32 52 -20.64 52 -22 52 C-22.02578125 52.6290625 -22.0515625 53.258125 -22.078125 53.90625 C-22.82518995 65.18013918 -27.66508393 72.4074124 -36 80 C-41.51751341 83.75964709 -46.32175981 85.72589567 -53 85 C-50.70610473 83.84476118 -48.40369328 82.7126522 -46.08984375 81.59765625 C-45.04957031 81.09105469 -44.00929688 80.58445312 -42.9375 80.0625 C-41.89464844 79.55847656 -40.85179687 79.05445313 -39.77734375 78.53515625 C-37.33777577 77.18670307 -35.89222535 75.97475232 -34 74 C-33.34 74 -32.68 74 -32 74 C-28.04600046 66.27590788 -24.50452209 58.74504957 -24 50 C-22.72125 49.773125 -21.4425 49.54625 -20.125 49.3125 C-10.17941574 47.03297833 -2.75141977 42.54761694 3 34 C6.43310264 27.35684941 8.24773501 20.46170244 7 13 C5.7124045 9.30679926 4.17835579 6.15023274 1.36328125 3.40234375 C0 2 0 2 0 0 Z " fill="#03040C" transform="translate(451,233)"/>
<path d="M0 0 C-1.37671875 0.02126953 -1.37671875 0.02126953 -2.78125 0.04296875 C-13.38812772 0.40264759 -13.38812772 0.40264759 -22 6 C-24.55856922 9.67601662 -25.94519132 13.58478663 -27.125 17.875 C-28 21 -28 21 -30 23 C-31.6736555 23.46919573 -33.3647066 23.87748837 -35.0625 24.25 C-42.84050978 26.27105766 -49.57668089 30.11928138 -54 37 C-54.53753906 37.82564453 -54.53753906 37.82564453 -55.0859375 38.66796875 C-58.48122493 44.50738152 -58.77827351 50.34820532 -59 57 C-59.33 57 -59.66 57 -60 57 C-60.62250221 48.17430198 -60.35009122 41.29557894 -55 34 C-47.94438651 26.12555323 -39.97586343 22.70179635 -30 20 C-28.42683902 18.42683902 -28.6176095 16.54685469 -28.3125 14.375 C-27.23282664 8.89839599 -25.36247774 5.50672518 -21 2 C-14.26658526 -2.19438219 -7.25788444 -4.00545499 0 0 Z " fill="#070819" transform="translate(341,91)"/>
<path d="M0 0 C1.67542976 0.28604898 3.34385343 0.61781233 5 1 C4.37738281 1.22171875 3.75476563 1.4434375 3.11328125 1.671875 C0.24918599 3.47186093 0.07964223 5.03301423 -0.8125 8.25 C-2.66818357 13.84638957 -5.03336535 16.87406986 -10 20 C-10.56976563 20.36996094 -11.13953125 20.73992187 -11.7265625 21.12109375 C-15.0389769 22.40166633 -18.36696091 22.39057493 -21.875 22.5 C-29.4107389 22.73767637 -35.41761951 23.56849466 -41 29 C-43.60469693 33.13158824 -44.44264654 36.13088811 -44 41 C-43.67 41.66 -43.34 42.32 -43 43 C-43.99 42.67 -44.98 42.34 -46 42 C-46.57588826 37.53915129 -46.96703383 33.63630865 -44.6171875 29.66015625 C-40.4678117 24.83718048 -36.31977394 21.33326701 -30 20 C-27.98619649 19.92669674 -25.97217604 19.85578035 -23.95751953 19.81176758 C-15.90720846 19.78797481 -15.90720846 19.78797481 -8.625 16.8125 C-4.14924495 12.01704816 -2.71225113 7.23748624 -1 1 C-0.67 0.67 -0.34 0.34 0 0 Z " fill="#060614" transform="translate(427,192)"/>
<path d="M0 0 C1.32 0.33 2.64 0.66 4 1 C3.731875 1.78375 3.46375 2.5675 3.1875 3.375 C2.02063636 6.74957966 2.02063636 6.74957966 1.48046875 9.2734375 C-0.96187091 19.26339457 -7.363037 26.78357645 -15.9921875 32.265625 C-20.60125075 34.67534272 -23.80455157 35.43295404 -29 35 C-26.70610473 33.84476118 -24.40369328 32.7126522 -22.08984375 31.59765625 C-21.04957031 31.09105469 -20.00929688 30.58445312 -18.9375 30.0625 C-17.89464844 29.55847656 -16.85179687 29.05445313 -15.77734375 28.53515625 C-13.33777577 27.18670307 -11.89222535 25.97475232 -10 24 C-9.34 24 -8.68 24 -8 24 C-4.04600046 16.27590788 -0.50452209 8.74504957 0 0 Z " fill="#060717" transform="translate(427,283)"/>
<path d="M0 0 C0.33 0 0.66 0 1 0 C1.4375 2.0625 1.4375 2.0625 1 5 C-0.41796875 6.609375 -0.41796875 6.609375 -2.25 8.3125 C-7.7017888 13.45465374 -10.1911522 18.04980525 -10.4375 25.625 C-10.28849701 30.10129823 -9.29616059 33.1065103 -7 37 C-7.33 37.66 -7.66 38.32 -8 39 C-12.21775914 33.82365923 -13.53307868 29.32083108 -13.375 22.69140625 C-12.45971832 16.12235337 -9.34492334 10.80598864 -4.25 6.625 C-3.65703125 6.20476562 -3.0640625 5.78453125 -2.453125 5.3515625 C-0.65507695 3.67918448 -0.38588136 2.38637157 0 0 Z " fill="#07081A" transform="translate(281,226)"/>
<path d="M0 0 C0.33 0 0.66 0 1 0 C2.65096274 11.37329886 -3.58059166 21.02861375 -10 30 C-12.25 31.375 -12.25 31.375 -14 32 C-14.99 30.35 -15.98 28.7 -17 27 C-16.34 27 -15.68 27 -15 27 C-14.34 27.66 -13.68 28.32 -13 29 C-5.77662345 20.33691266 -1.62299078 11.16714551 0 0 Z " fill="#08091B" transform="translate(477,205)"/>
<path d="M0 0 C1.32 1.32 2.64 2.64 4 4 C3.67 4.66 3.34 5.32 3 6 C2.01 5.34 1.02 4.68 0 4 C-0.42410156 4.45890625 -0.84820312 4.9178125 -1.28515625 5.390625 C-5.25204344 9.54059929 -8.88676339 12.39514362 -14 15 C-14.99 15.61875 -14.99 15.61875 -16 16.25 C-18.99636066 17.37363525 -21.83728615 17.12164284 -25 17 C-22.14415741 15.50002763 -19.28959715 14.38216715 -16.25 13.3125 C-9.27196241 10.56045268 -4.33793738 6.04923378 0 0 Z " fill="#07081A" transform="translate(359,301)"/>
<path d="M0 0 C0.99 0.33 1.98 0.66 3 1 C2.0925 1.5775 1.185 2.155 0.25 2.75 C-3.85988843 6.09232061 -4.81131873 10.51595509 -6.23828125 15.453125 C-7 18 -7 18 -8 19 C-10.9375 19.25 -10.9375 19.25 -14 19 C-14.66 18.01 -15.32 17.02 -16 16 C-14.576875 16.309375 -14.576875 16.309375 -13.125 16.625 C-11.578125 16.810625 -11.578125 16.810625 -10 17 C-7.68280062 14.68280062 -7.69860578 13.89024044 -7.25 10.75 C-6.22353513 5.54195283 -3.99087118 3.38356469 0 0 Z " fill="#050613" transform="translate(301,186)"/>
<path d="M0 0 C1.6065676 0.25620684 3.2102483 0.53055871 4.8125 0.8125 C6.15248047 1.03873047 6.15248047 1.03873047 7.51953125 1.26953125 C10 2 10 2 13 5 C9.37 4.01 5.74 3.02 2 2 C2.33 4.31 2.66 6.62 3 9 C2.01 9 1.02 9 0 9 C0 6.03 0 3.06 0 0 Z " fill="#0D0F30" transform="translate(363,250)"/>
<path d="M0 0 C0.99 0.99 1.98 1.98 3 3 C2.34 4.98 1.68 6.96 1 9 C-0.98 9 -2.96 9 -5 9 C-5.33 8.34 -5.66 7.68 -6 7 C-4.35 7 -2.7 7 -1 7 C-0.25042843 3.52852158 -0.25042843 3.52852158 0 0 Z " fill="#07081A" transform="translate(289,161)"/>
<path d="M0 0 C-1.175625 0.61875 -1.175625 0.61875 -2.375 1.25 C-5.05891656 3.0392777 -5.88098949 4.04988139 -7 7 C-8 4 -8 4 -7.1875 1.875 C-5.07546934 -1.45978525 -3.47237148 -1.04171144 0 0 Z " fill="#25287A" transform="translate(346,267)"/>
</svg>
